<?xml version="1.0" ?><svg viewBox="0 0 25 25" xmlns="http://www.w3.org/2000/svg"><defs><style>.cls-1{fill:#fff;}.cls-2{fill:#dbdde0;}.cls-3{fill:none;}.cls-4{fill:#ff8e22;}.cls-5{fill:#ffbe22;}</style></defs><title/><g data-name="Layer 2" id="Layer_2"><g data-name="Layer 1 copy" id="Layer_1_copy"><g data-name="invision round" id="invision_round"><g id="explore"><circle class="cls-1" cx="12.5" cy="12.5" r="7.85"/><path class="cls-2" d="M12.5,5.25A7.25,7.25,0,1,1,5.25,12.5,7.26,7.26,0,0,1,12.5,5.25m0-.6a7.85,7.85,0,1,0,7.85,7.85A7.85,7.85,0,0,0,12.5,4.65Z"/></g><rect class="cls-3" height="25" width="25"/><polygon class="cls-4" points="8.38 12.76 9.24 13.72 11.42 12.93 11.01 11.8 8.38 12.76"/><polygon class="cls-5" points="9.24 13.72 9.2 15.01 11.84 14.05 11.43 12.93 9.24 13.72"/><path class="cls-4" d="M9.69,13.56c.41,1.08,2.26,1.39,4.14.71s3.09-2.12,2.72-3.21Z"/><path class="cls-5" d="M12.41,10.35c-1.89.69-3.1,2.12-2.72,3.21l6.86-2.5C16.14,10,14.29,9.66,12.41,10.35Z"/><path class="cls-4" d="M9.69,13.56c.29.71,2,.73,3.9,0s3.19-1.82,3-2.55Z"/><path class="cls-5" d="M12.65,11c-1.88.68-3.2,1.82-3,2.55l6.86-2.5C16.27,10.35,14.53,10.32,12.65,11Z"/></g></g></g></svg>