<?xml version="1.0" ?><!DOCTYPE svg  PUBLIC '-//W3C//DTD SVG 1.1//EN'  'http://www.w3.org/Graphics/SVG/1.1/DTD/svg11.dtd'><svg height="512px" style="enable-background:new 0 0 512 512;" version="1.1" viewBox="0 0 512 512" width="512px" xml:space="preserve" xmlns="http://www.w3.org/2000/svg" xmlns:xlink="http://www.w3.org/1999/xlink"><g id="C_-_28_x2C__Briefcase_x2C__business_x2C__case_x2C__documents_x2C__marketing_x2C__portfolio_x2C__suitcase"><g><polygon points="143.547,309.846 108.014,309.846 108.017,364.052 108.021,425.611 143.553,425.611 143.549,367.729   "/><path d="M98.643,309.846h-4.29c-2.587,0-4.686-2.098-4.686-4.686v-26.838c-14.827-5.323-28.098-15.062-37.646-27.704    c-2.592-3.432-4.88-7.022-6.867-10.739v185.732h53.495l-0.004-57.883L98.643,309.846z"/><polygon points="103.328,229.402 99.039,229.402 99.039,246.846 152.534,246.846 152.534,229.402 148.231,229.402   "/><polygon points="99.039,274.955 99.039,300.475 103.328,300.475 148.231,300.475 152.534,300.475 152.534,278.345     152.534,256.217 99.039,256.217   "/><path d="M89.668,268.289v-43.573c0-2.588,2.099-4.686,4.686-4.686h4.289V131.08H45.154v71.292    C45.154,231.097,63.167,257.343,89.668,268.289z"/><rect height="88.951" width="35.533" x="108.013" y="131.08"/><rect height="88.951" width="35.532" x="368.454" y="131.08"/><polygon points="412.934,229.402 408.678,229.402 408.672,229.402 363.769,229.402 359.479,229.402 359.478,246.846     412.945,246.846   "/><rect height="35.321" width="152.275" x="179.862" y="86.388"/><path d="M161.905,224.716v48.943h188.157l0.046-48.948c0-0.161,0.032-0.313,0.048-0.469c0.017-0.157,0.017-0.319,0.049-0.472    c0.026-0.131,0.078-0.25,0.115-0.376c0.051-0.169,0.09-0.343,0.158-0.503c0.042-0.101,0.105-0.188,0.154-0.286    c0.088-0.173,0.17-0.351,0.277-0.51c0.061-0.09,0.139-0.164,0.204-0.248c0.119-0.152,0.231-0.309,0.368-0.446    c0.09-0.088,0.195-0.159,0.293-0.241c0.131-0.112,0.256-0.232,0.399-0.33c0.126-0.085,0.268-0.146,0.401-0.218    c0.131-0.071,0.256-0.156,0.395-0.214c0.156-0.066,0.327-0.103,0.492-0.153c0.13-0.038,0.253-0.092,0.387-0.12    c0.306-0.063,0.621-0.095,0.944-0.095h4.29V131.08h-22.262H175.176h-22.259v88.951h4.303    C159.808,220.031,161.905,222.128,161.905,224.716z M282.998,233.657h17.934v17.851h-17.934V233.657z M247.047,233.657h17.935    v17.851h-17.935V233.657z M211.097,233.657h17.935v17.851h-17.935V233.657z"/><polygon points="359.477,256.217 359.473,300.475 363.776,300.475 408.676,300.475 412.98,300.471 412.951,256.217   "/><rect height="115.766" width="35.533" x="368.461" y="309.846"/><path d="M413.357,131.08v88.946l4.254-0.006c0.002,0,0.004,0,0.006,0c0.326,0,0.648,0.039,0.962,0.104    c0.197,0.04,0.382,0.109,0.569,0.173c0.088,0.03,0.181,0.047,0.268,0.083c1.713,0.697,2.923,2.373,2.923,4.337v43.584    c26.496-10.926,44.507-37.177,44.507-65.929V131.08H413.357z"/><path d="M422.336,278.333l0.018,26.817c0.002,2.587-2.094,4.686-4.682,4.688l-4.308,0.004v115.77h53.481V239.908    c-1.984,3.714-4.268,7.299-6.855,10.727C450.445,263.281,437.171,273.019,422.336,278.333z"/><path d="M351.473,308.473c-0.878-0.878-1.371-2.07-1.371-3.313l0.002-22.13H161.905v22.13c0,2.588-2.098,4.686-4.686,4.686h-4.302    l0.003,54.206l0.001,7.93h165.946c2.588,0,4.686,2.098,4.686,4.686s-2.098,4.686-4.686,4.686H152.921l0.002,44.259h206.167    V309.846h-4.304C353.544,309.846,352.353,309.353,351.473,308.473z"/></g></g><g id="Layer_1"/></svg>